<svg version="1.0" xmlns="http://www.w3.org/2000/svg" class="h-8 md:h-16" viewBox="0 0 200.000000 308.000000" preserveAspectRatio="xMidYMid meet">
  <style>
    g {
      fill: #000000;
    }
    @media (prefers-color-scheme: dark) {
      g {
        fill: #ffffff;
        stroke: #000000;
      }
    }
  </style>
  <g transform="translate(0.000000,308.000000) scale(0.100000,-0.100000)" fill="#000000" stroke="none">
    <path d="M681 2953 c-145 -4 -171 -10 -171 -42 1 -39 15 -45 113 -43 l94 3 7 -62 c3 -34 6 -113 6 -175 0 -63 2 -114 4 -114 2 0 17 7 32 15 40 21 65 19 134 -10 69 -29 134 -32 206 -10 27 8 69 15 93 15 l44 0 -4 173 -4 172 80 3 c44 1 90 4 101 7 27 6 37 30 24 56 -10 18 -24 19 -313 17 -166 -1 -367 -4 -446 -5z"></path>
    <path d="M769 2487 l-34 -23 4 -309 c2 -171 7 -438 10 -595 6 -266 8 -288 29 -327 81 -155 321 -179 436 -43 49 59 50 64 37 696 -6 323 -14 591 -17 596 -8 13 -66 10 -120 -7 -73 -22 -144 -19 -220 10 -81 31 -83 31 -125 2z m380 -192 c30 -15 42 -42 34 -75 -6 -21 -50 -50 -76 -50 -8 0 -26 9 -41 21 -35 28 -35 70 0 98 32 25 46 26 83 6z m-204 -195 c24 -27 22 -70 -5 -92 -65 -53 -160 21 -109 85 26 34 86 38 114 7z m214 -256 c27 -34 26 -50 -4 -79 -47 -48 -125 -20 -125 44 0 60 90 84 129 35z m-215 -205 c62 -49 4 -135 -73 -108 -57 20 -63 97 -8 119 35 14 52 12 81 -11z m196 -229 c62 -62 -43 -150 -108 -90 -46 43 -13 110 53 110 22 0 43 -8 55 -20z"></path>
    <path d="M444 2022 c-22 -14 -69 -86 -171 -263 -152 -263 -173 -302 -173 -319 0 -6 55 -10 160 -10 115 0 160 3 160 12 0 6 54 105 120 219 83 144 120 218 120 239 0 38 -19 77 -54 109 -36 34 -118 40 -162 13z"></path>
    <path d="M1402 2020 c-41 -25 -77 -100 -67 -138 3 -14 57 -114 119 -221 62 -108 115 -204 119 -213 6 -16 23 -18 166 -18 l161 0 -11 28 c-19 51 -300 530 -324 552 -36 33 -118 38 -163 10z"></path>
    <path d="M100 1337 c0 -13 99 -190 301 -538 115 -199 101 -196 194 -34 l78 136 -20 27 c-32 45 -233 398 -233 410 0 9 -45 12 -160 12 -127 0 -160 -3 -160 -13z"></path>
    <path d="M1573 1333 c-10 -26 -223 -395 -239 -414 -8 -8 -14 -19 -14 -23 0 -8 138 -247 151 -261 6 -6 14 -4 24 5 25 26 395 674 395 692 0 16 -13 18 -155 18 -139 0 -156 -2 -162 -17z"></path>
    <path d="M707 803 c-88 -148 -118 -204 -112 -213 8 -13 792 -14 799 -1 4 5 -28 68 -70 140 l-76 131 -253 0 -254 0 -34 -57z"></path>
    <path d="M700 435 c0 -78 2 -88 25 -110 l24 -25 240 0 c132 0 247 3 256 6 29 12 45 60 45 139 l0 75 -295 0 -295 0 0 -85z"></path>
    <path d="M790 175 l0 -65 205 0 205 0 0 65 0 65 -205 0 -205 0 0 -65z"></path>
  </g>
</svg>